<mxfile host="Electron" modified="2023-12-28T09:56:41.640Z" agent="Mozilla/5.0 (Windows NT 10.0; Win64; x64) AppleWebKit/537.36 (KHTML, like Gecko) draw.io/22.1.15 Chrome/120.0.6099.109 Electron/28.1.0 Safari/537.36" etag="wg1lLXUH1SauiriJ825v" version="22.1.15" type="device">
  <diagram name="第 1 页" id="Gg2iyUs7DwP25ByoZAri">
    <mxGraphModel dx="714" dy="434" grid="1" gridSize="10" guides="1" tooltips="1" connect="1" arrows="1" fold="1" page="1" pageScale="1" pageWidth="827" pageHeight="1169" math="0" shadow="0">
      <root>
        <mxCell id="0" />
        <mxCell id="1" parent="0" />
        <mxCell id="M4chuvIUlVL1XSsN0qaP-1" value="门票" style="rounded=0;whiteSpace=wrap;html=1;" parent="1" vertex="1">
          <mxGeometry x="300" y="150" width="100" height="40" as="geometry" />
        </mxCell>
        <mxCell id="M4chuvIUlVL1XSsN0qaP-6" value="" style="endArrow=none;html=1;rounded=0;exitX=0.5;exitY=0;exitDx=0;exitDy=0;entryX=0.459;entryY=1.045;entryDx=0;entryDy=0;entryPerimeter=0;" parent="1" edge="1" target="M4chuvIUlVL1XSsN0qaP-1">
          <mxGeometry width="50" height="50" relative="1" as="geometry">
            <mxPoint x="320" y="260" as="sourcePoint" />
            <mxPoint x="350" y="210" as="targetPoint" />
          </mxGeometry>
        </mxCell>
        <mxCell id="M4chuvIUlVL1XSsN0qaP-7" value="" style="endArrow=none;html=1;rounded=0;exitX=0.402;exitY=0.019;exitDx=0;exitDy=0;exitPerimeter=0;" parent="1" source="PPIzi_HX9jxEirlFPTv9-3" edge="1">
          <mxGeometry width="50" height="50" relative="1" as="geometry">
            <mxPoint x="401.03999999999996" y="257.36" as="sourcePoint" />
            <mxPoint x="370" y="190" as="targetPoint" />
          </mxGeometry>
        </mxCell>
        <mxCell id="M4chuvIUlVL1XSsN0qaP-8" value="" style="endArrow=none;html=1;rounded=0;exitX=0.861;exitY=1.072;exitDx=0;exitDy=0;exitPerimeter=0;entryX=0;entryY=0;entryDx=0;entryDy=0;" parent="1" edge="1" target="PPIzi_HX9jxEirlFPTv9-4" source="M4chuvIUlVL1XSsN0qaP-1">
          <mxGeometry width="50" height="50" relative="1" as="geometry">
            <mxPoint x="420" y="210" as="sourcePoint" />
            <mxPoint x="450" y="260" as="targetPoint" />
          </mxGeometry>
        </mxCell>
        <mxCell id="M4chuvIUlVL1XSsN0qaP-9" value="" style="endArrow=none;html=1;rounded=0;" parent="1" edge="1">
          <mxGeometry width="50" height="50" relative="1" as="geometry">
            <mxPoint x="260.0465959379926" y="243.5954156908549" as="sourcePoint" />
            <mxPoint x="321.72" y="190" as="targetPoint" />
          </mxGeometry>
        </mxCell>
        <mxCell id="PPIzi_HX9jxEirlFPTv9-1" value="门票编号" style="ellipse;whiteSpace=wrap;html=1;" vertex="1" parent="1">
          <mxGeometry x="200" y="240" width="80" height="40" as="geometry" />
        </mxCell>
        <mxCell id="PPIzi_HX9jxEirlFPTv9-2" value="价格" style="ellipse;whiteSpace=wrap;html=1;" vertex="1" parent="1">
          <mxGeometry x="280" y="260" width="80" height="40" as="geometry" />
        </mxCell>
        <mxCell id="PPIzi_HX9jxEirlFPTv9-3" value="门票余量" style="ellipse;whiteSpace=wrap;html=1;" vertex="1" parent="1">
          <mxGeometry x="370" y="260" width="80" height="40" as="geometry" />
        </mxCell>
        <mxCell id="PPIzi_HX9jxEirlFPTv9-4" value="门票名" style="ellipse;whiteSpace=wrap;html=1;" vertex="1" parent="1">
          <mxGeometry x="460" y="250" width="80" height="40" as="geometry" />
        </mxCell>
      </root>
    </mxGraphModel>
  </diagram>
</mxfile>
